<?xml version="1.0" encoding="UTF-8"?>
<svg width="700pt" height="700pt" version="1.1" viewBox="0 0 700 700"
    xmlns="http://www.w3.org/2000/svg" xmlns:xlink="http://www.w3.org/1999/xlink">
    <g>
        <path
            d="m400.31 201.25c0 4.832-3.918 8.75-8.75 8.75s-8.75-3.918-8.75-8.75 3.918-8.75 8.75-8.75 8.75 3.918 8.75 8.75" />
        <path
            d="m426.56 214.38c0 4.832-3.918 8.75-8.75 8.75s-8.75-3.918-8.75-8.75 3.918-8.75 8.75-8.75 8.75 3.918 8.75 8.75" />
        <path
            d="m395.94 227.5c0 4.832-3.918 8.75-8.75 8.75s-8.75-3.918-8.75-8.75 3.918-8.75 8.75-8.75 8.75 3.918 8.75 8.75" />
        <path
            d="m457.19 218.75c0 4.832-3.918 8.75-8.75 8.75s-8.75-3.918-8.75-8.75 3.918-8.75 8.75-8.75 8.75 3.918 8.75 8.75" />
        <path
            d="m245.39 220.54c3.418 3.418 8.9609 3.418 12.379 0 3.4219-3.418 3.4219-8.9609 0-12.379l-8.75-8.75c-3.418-3.4219-8.9609-3.4219-12.379 0-3.418 3.418-3.418 8.9609 0 12.379z" />
        <path
            d="m271.64 203.04c3.418 3.418 8.9609 3.418 12.379 0 3.4219-3.418 3.4219-8.9609 0-12.379l-8.75-8.75c-3.418-3.4219-8.9609-3.4219-12.379 0-3.418 3.418-3.418 8.9609 0 12.379z" />
        <path
            d="m330.97 192.5c2.7773 0 5.3906-1.3203 7.0391-3.5586 1.6484-2.2344 2.1367-5.1172 1.3164-7.7734-0.57422-1.2422-0.60938-2.668-0.09375-3.9336 0.51172-1.2695 1.5273-2.2695 2.8086-2.7578 4.3008-1.793 6.4453-6.6484 4.8711-11.035-1.5781-4.3906-6.3164-6.7695-10.777-5.418-5.5273 1.9922-10.043 6.0781-12.574 11.379-2.5312 5.2969-2.8711 11.383-0.94531 16.93 1.1328 3.6641 4.5195 6.168 8.3555 6.168z" />
        <path
            d="m509.69 551.25c0-2.3203-0.92188-4.5469-2.5625-6.1875s-3.8672-2.5625-6.1875-2.5625h-47.602c0-0.74219 47.426-285.77 47.555-288.75h13.129c4.832 0 8.75-3.918 8.75-8.75s-3.918-8.75-8.75-8.75h-13.738c0.4375-3.293 0.65625-6.6094 0.65625-9.9297-0.015625-5.3555-0.58594-10.691-1.707-15.926-0.49219-2.3594-1.9375-4.4062-3.9922-5.6641-2.0508-1.2578-4.5312-1.6172-6.8555-0.98828-0.89844 0.26562-1.8242 0.41406-2.7578 0.4375-2.9492-0.042969-5.7539-1.2578-7.8086-3.375-2.0508-2.1172-3.1758-4.9648-3.1289-7.9102-0.011719-3.1289 1.2734-6.1211 3.543-8.2695 1.6992-1.6484 2.6562-3.9141 2.6562-6.2773 0-2.3672-0.95703-4.6328-2.6562-6.2773-5.5391-5.4648-11.902-10.027-18.855-13.52-2.1992-1.1055-4.7617-1.2305-7.0625-0.34766-2.2969 0.88281-4.1172 2.6914-5.0117 4.9844-1.0938 2.8789-3.0352 5.3594-5.5625 7.1172-2.5312 1.7578-5.5352 2.707-8.6133 2.7266-3.6836-0.015625-7.2344-1.3867-9.9766-3.8516-1.1211-15.988-3.2695-31.887-6.4297-47.598l22.664-45.062c6.9492 2.0508 14.402 1.6055 21.062-1.2617 6.6562-2.8711 12.098-7.9805 15.379-14.445 3.6289-7.2969 4.2031-15.734 1.5898-23.453-2.6094-7.7188-8.1875-14.078-15.5-17.672-6.0586-2.9883-12.926-3.9102-19.559-2.625-3.0117-6.0391-7.9336-10.914-14-13.867-7.3203-3.6055-15.766-4.1875-23.508-1.6172-7.7461 2.5703-14.168 8.0859-17.879 15.352-3.2188 6.4531-4.0586 13.836-2.3711 20.848 1.6875 7.0117 5.7969 13.199 11.602 17.48l-22.574 44.973c-22.238 10.688-43.418 23.445-63.262 38.105v-0.4375c1.1445-4.4883-1.4062-9.0898-5.8203-10.5-23.621-7.6445-49.223-6.3672-71.969 3.5898-0.36719-0.60547-0.80859-1.1641-1.3125-1.6641-1.3555-1.3125-13.125-13.562 0.26172-32.375 1.4297-1.8906 2.0234-4.2812 1.6562-6.625-0.36719-2.3398-1.6719-4.4336-3.6094-5.7969-1.9375-1.3633-4.3477-1.8828-6.6758-1.4375-2.3281 0.44531-4.375 1.8164-5.6758 3.7969-7.9414 10.074-11.133 23.094-8.75 35.699-1.9727-1.0469-4.0391-1.9102-6.168-2.5781-17.281-5.4258-35.832 2.9297-37.887 3.8945v-0.003906c-4.2695 1.9883-6.2031 6.9922-4.375 11.332 0.35156 0.78906 8.2695 19.207 26.25 24.938 1.9844 0.61719 4.0195 1.0703 6.0781 1.3555-9.1719 11.727-15.75 25.266-19.293 39.727-1.1445 4.4883 1.4062 9.0938 5.8203 10.5 14.574 4.6406 27.645 13.098 37.844 24.5h-26.25c-4.832 0-8.75 3.918-8.75 8.75s3.918 8.75 8.75 8.75h13.125c0 2.9766 47.383 288.01 47.555 288.75h-47.73c-4.832 0-8.75 3.918-8.75 8.75s3.918 8.75 8.75 8.75h297.5c2.3203 0 4.5469-0.92188 6.1875-2.5625s2.5625-3.8672 2.5625-6.1875zm-76.562-360.72c9.8672 0.011719 19.203-4.4609 25.375-12.164l1.8359 1.3555v0.003906c-4.3594 8.5039-4.2305 18.617 0.35156 27.008s13.016 13.973 22.531 14.902v4.7266c0.066406 3.3086-0.15625 6.6172-0.65625 9.8867h-44.102c-1.5703-2.6758-4.4414-4.3203-7.5469-4.3203-3.1016 0-5.9727 1.6445-7.5469 4.3203h-52.805c-2.2383-12.785-0.14453-25.953 5.9492-37.414 6.0938-11.461 15.844-20.555 27.695-25.848 2.7695 5.2773 6.9258 9.6992 12.02 12.789 5.0977 3.0938 10.938 4.7344 16.898 4.7539zm-17.5-135.1c1.1562-2.293 1.2461-4.9844 0.24609-7.3516-1.0039-2.3672-2.9961-4.1758-5.4531-4.9414-0.66016-0.19922-1.3008-0.44531-1.9258-0.74219-3.168-1.5508-5.582-4.3086-6.6914-7.6562-1.1094-3.2695-0.85938-6.8516 0.69922-9.9336 3.3867-6.5352 11.379-9.1602 17.98-5.9062 4.0938 1.9961 6.8594 5.9727 7.3086 10.5 0.31641 2.9531 2.1133 5.5391 4.7617 6.875 2.6523 1.3359 5.8008 1.2344 8.3633-0.26563 3.9805-2.4453 8.9453-2.6641 13.125-0.57031 3.168 1.5469 5.582 4.3086 6.6914 7.6562 1.1094 3.2695 0.85938 6.8477-0.69922 9.9297-3.3867 6.5625-11.41 9.1914-18.023 5.9062-0.61328-0.31641-1.1992-0.68359-1.75-1.0938-2.082-1.4492-4.6914-1.9258-7.1484-1.3047-2.4609 0.62109-4.5312 2.2773-5.6719 4.543l-24.938 49.789-11.727-5.8633zm-38.414 62.695 23.188 11.418c0.91797 4.8555 2.4062 13.781 3.6758 25.07-15.098 4.9648-28.242 14.57-37.559 27.445-9.3164 12.879-14.332 28.367-14.328 44.262 0.007812 3.3203 0.24219 6.6406 0.69922 9.9297h-1.0938c-14.082-7.9531-25.648-19.703-33.379-33.906-6.6602-12.18-10.348-25.762-10.766-39.637 21.5-17.344 44.824-32.293 69.562-44.582zm-185.15 25.242c-3.9023-1.3398-7.375-3.6953-10.062-6.8242 5.0391-1.2812 10.316-1.2812 15.355 0 3.9023 1.3438 7.375 3.6992 10.062 6.8242-5.0352 1.2891-10.316 1.2891-15.355 0zm0.4375 54.559c1.7148-4.6914 3.7617-9.2539 6.125-13.652 2.5273-4.5117 5.4531-8.7891 8.75-12.773 16.887-20.434 42.184-32.035 68.688-31.5 5.2578 0.17188 10.484 0.83203 15.617 1.9688-4.0781 23.543-0.054688 47.773 11.422 68.73 5.168 9.4805 11.781 18.102 19.598 25.551h-83.781c-11.324-17.098-27.484-30.441-46.418-38.324zm28.48 55.824h262.5c0 1.8359-6.3867 39.375-6.3867 39.375h-249.59zm201.25 56.875-29.312 196.88h-29.793v-196.88zm-76.605 0v196.88h-29.664l-29.312-196.88zm-115.37 0h38.852-0.003906c-0.03125 0.42188-0.03125 0.84766 0 1.2695l29.184 195.61h-35.484zm206.37 226.8c-0.44531 2.8828-2.9023 5.0234-5.8203 5.0742h-157.23c-2.9258-0.03125-5.3906-2.1836-5.8203-5.0742l-2.0547-12.426h172.98zm-26.25-29.926 29.137-195.61c0.03125-0.42188 0.03125-0.84766 0-1.2695h34.477l-32.551 196.88z" />
        <path
            d="m133.44 468.12c0 4.832-3.918 8.75-8.75 8.75s-8.75-3.918-8.75-8.75 3.918-8.75 8.75-8.75 8.75 3.918 8.75 8.75" />
        <path
            d="m199.06 415.62c0-8.1211-3.2266-15.91-8.9688-21.656-5.7461-5.7422-13.535-8.9688-21.656-8.9688s-15.91 3.2266-21.656 8.9688c-5.7422 5.7461-8.9688 13.535-8.9688 21.656s3.2266 15.91 8.9688 21.656c5.7461 5.7422 13.535 8.9688 21.656 8.9688s15.91-3.2266 21.656-8.9688c5.7422-5.7461 8.9688-13.535 8.9688-21.656zm-43.75 0c0-5.3086 3.1992-10.094 8.1016-12.125 4.9062-2.0312 10.551-0.91016 14.305 2.8438s4.875 9.3984 2.8438 14.305c-2.0312 4.9023-6.8164 8.1016-12.125 8.1016-7.25 0-13.125-5.875-13.125-13.125z" />
        <path
            d="m584.06 468.12c0 4.832-3.918 8.75-8.75 8.75s-8.75-3.918-8.75-8.75 3.918-8.75 8.75-8.75 8.75 3.918 8.75 8.75" />
        <path
            d="m531.56 385c-8.1211 0-15.91 3.2266-21.656 8.9688-5.7422 5.7461-8.9688 13.535-8.9688 21.656s3.2266 15.91 8.9688 21.656c5.7461 5.7422 13.535 8.9688 21.656 8.9688s15.91-3.2266 21.656-8.9688c5.7422-5.7461 8.9688-13.535 8.9688-21.656s-3.2266-15.91-8.9688-21.656c-5.7461-5.7422-13.535-8.9688-21.656-8.9688zm0 43.75c-5.3086 0-10.094-3.1992-12.125-8.1016-2.0312-4.9062-0.91016-10.551 2.8438-14.305s9.3984-4.875 14.305-2.8438c4.9023 2.0312 8.1016 6.8164 8.1016 12.125 0 7.25-5.875 13.125-13.125 13.125z" />
    </g>
</svg>
